<svg width="18" height="17" viewBox="0 0 18 17" fill="none" xmlns="http://www.w3.org/2000/svg">
<path d="M14.4745 7.27963L14.3835 4.28101" stroke="black" stroke-linecap="round" stroke-linejoin="round"/>
<path d="M15.9284 5.73472L12.9297 5.82568" stroke="black" stroke-linecap="round" stroke-linejoin="round"/>
<path d="M11.3091 1.87305L11.3698 3.87213" stroke="black" stroke-linecap="round" stroke-linejoin="round"/>
<path d="M12.339 2.84219L10.3399 2.90283" stroke="black" stroke-linecap="round" stroke-linejoin="round"/>
<path d="M14.5951 9.81456C13.6223 10.1195 12.5858 10.1599 11.5921 9.9318C10.5984 9.70367 9.68335 9.21515 8.94091 8.51642C8.19846 7.81769 7.65538 6.93393 7.36743 5.9559C7.07948 4.97788 7.05705 3.94083 7.30244 2.95127C6.34322 3.24987 5.47897 3.79458 4.79578 4.53114C4.11259 5.2677 3.6343 6.1704 3.40855 7.14934C3.1828 8.12827 3.21748 9.14927 3.50912 10.1106C3.80076 11.072 4.33919 11.9402 5.07078 12.6287C5.80237 13.3172 6.70158 13.802 7.67886 14.0348C8.65613 14.2677 9.67735 14.2404 10.6408 13.9557C11.6042 13.6711 12.4763 13.139 13.1701 12.4124C13.8639 11.6858 14.3552 10.7901 14.5951 9.81456Z" stroke="black" stroke-linecap="round" stroke-linejoin="round"/>
</svg>
